<svg xmlns="http://www.w3.org/2000/svg" xmlns:xlink="http://www.w3.org/1999/xlink" viewBox="0 0 453.9148 351.0674">
  <defs>
    <linearGradient id="linear-gradient" x1="231.4574" y1="8" x2="231.4574" y2="351.0674" gradientUnits="userSpaceOnUse">
      <stop offset="0" stop-color="#254bc9"/>
      <stop offset="0.4765" stop-color="#2449ca"/>
      <stop offset="0.6481" stop-color="#2142cf"/>
      <stop offset="0.7705" stop-color="#1b37d8"/>
      <stop offset="0.8694" stop-color="#1326e4"/>
      <stop offset="0.9531" stop-color="#0810f4"/>
      <stop offset="1" stop-color="blue"/>
    </linearGradient>
    <linearGradient id="linear-gradient-2" x1="222.4574" x2="222.4574" y2="343.0674" gradientUnits="userSpaceOnUse">
      <stop offset="0" stop-color="#80e8c9"/>
      <stop offset="0.8587" stop-color="#80e8c9"/>
      <stop offset="1" stop-color="#80e8c9"/>
    </linearGradient>
  </defs>
  <title>Asset 6</title>
  <g style="isolation: isolate">
    <g id="Layer_2" data-name="Layer 2">
      <g id="Layer_1-2" data-name="Layer 1" style="mix-blend-mode: multiply">
        <g>
          <path d="M244.9377,8c17.5908.2673,35.1815.2617,52.7723.257q26.4861-.0072,52.9721-.005,13.1931.0028,26.3862.0121,6.5964.005,13.193.0119c4.1336.0045,8.2953-.1308,12.425.0561,12.7939.579,24.9428,6.8288,34.121,15.5464,9.14,8.6817,15.9883,20.4661,16.9848,33.2047a39.7134,39.7134,0,0,1,.0934,4.64c-.5141,13.2141-2.6265,26.2927-4.6437,39.341-2.0465,13.2384-3.6692,26.532-5.4342,39.81-1.7639,13.2686-3.7656,26.5-5.8219,39.7258q-3.1012,19.9467-6.29,39.88c-1.04,6.574-1.9434,13.1854-3.1772,19.7259-.2969,1.5736-.59,3.1521-.7317,4.7487-.1391,1.5644-8.7,31.2882-15.6144,38.73A57.1184,57.1184,0,0,1,388.26,299.52a58.79,58.79,0,0,1-14.2207,2.6789c-5.9892.41-12.0119-.0394-18.0034-.1978-13.3843-.354-26.7741-.4561-40.1627-.42-13.3941.0361-26.7875.21-40.18.4085q-4.9713.0736-9.9426.15c-6.8848.1045-13.7046-1.6746-19.1049-6.076a31.6054,31.6054,0,0,1-6.4351-7.2983,25.1712,25.1712,0,0,1-4.2248-10.1245c-1.1608-8.2885,3.4559-15.9989,8.7154-21.99,3.287-3.7442,6.7853-7.3174,10.1664-10.9772q5.1446-5.5686,10.2663-11.1581,10.1843-11.0994,20.3965-22.1731,5.1539-5.559,10.352-11.0768c2.293-2.4308,4.39-5.157,7.0514-7.2053a8.9772,8.9772,0,0,1,8.7608-1.7064,14.0508,14.0508,0,0,1,7.9343,7.3545c3.0577,7.0889-1.0491,14.1-2.3938,21.0159a23.1629,23.1629,0,0,0,.24,10.8931,22.9206,22.9206,0,0,0,6.6077,10.1455,24.216,24.216,0,0,0,20.4032,6.4566,38.1594,38.1594,0,0,0,5.7729-1.3033c6.8679-2.0862,13.2642-5.8837,17.5944-11.7049a30.5465,30.5465,0,0,0,4.6958-9.465c1.341-4.47,1.8075-9.2259,2.5355-13.8231,3.37-21.2788,6.4135-42.6072,9.52-63.9255q1.29-8.8557,2.6031-17.7082c.4408-2.9623.8045-5.9478,1.468-8.8707.6491-2.8589,1.4983-5.6668,2.2088-8.51,3.4226-13.6969.5-29.476-9.8491-39.5575A28.3183,28.3183,0,0,0,365.2565,65.46a44.9092,44.9092,0,0,0-18.7229,1.3649c-6.7807,1.904-13.4082,5.303-18.2082,10.5493Q309.783,97.64,291.5034,118.145q-18.2541,20.3957-36.4838,40.8131c-5.3921,6.0158-10.8779,13.03-18.3393,16.5758-5.65,2.685-11.886,2.345-16.877-1.5606-3.0646-2.3981-5.1328-5.6058-7.18-8.8572q-3.6056-5.7252-7.1358-11.4974c-4.7481-7.75-9.4184-15.5465-14.0851-23.3454-4.6334-7.7433-9.2633-15.4889-13.9626-23.1926-4.4956-7.37-8.8851-14.8348-13.8879-21.8774a61.68,61.68,0,0,0-7.0666-8.7121,39.3546,39.3546,0,0,0-7.76-5.8205,47.2435,47.2435,0,0,0-18.6262-5.9327,46.5166,46.5166,0,0,0-19.5593,2.0247A26.2314,26.2314,0,0,0,97.3352,77.3733a52.9093,52.9093,0,0,0-7.4255,18.55c-.8248,3.8443-1.2258,7.7282-1.6693,11.6291-.51,4.4894-1.1047,8.969-1.75,13.441-2.601,18.0323-6.0268,35.9443-8.1339,54.0474q-1.5681,13.4728-2.0076,27.0446-.2323,6.8808-.199,13.7671.0152,3.338.0908,6.6751a19.21,19.21,0,0,0,.4531,4.4085c1.45,5.6734,5.6928,10.5752,10.0484,14.2952,4.02,3.4339,9.144,6.8019,14.5788,7.1273a23.0489,23.0489,0,0,0,15.7874-4.697c4.9664-3.9388,7.9379-9.801,9.5711-15.8217a73.336,73.336,0,0,0,2.1039-12.75c.3412-3.8554.2608-7.8017.9525-11.6161a19.9533,19.9533,0,0,1,9.2448-13.9293c5.3175-3.1749,12.1262-4.4856,17.7952-1.474,6.3906,3.395,9.6772,10.5569,13.3287,16.4291,9.4871,15.2569,19.22,30.37,28.1566,45.9606a110.87,110.87,0,0,1,5.4162,10.1916,22.8,22.8,0,0,1,2.1342,7.4387c.3741,5.08-2.62,9.3142-5.7509,13.0126-2.5392,2.9989-5.2958,5.8086-7.9865,8.67q-4.7166,5.0154-9.3872,10.0736-9.2152,9.9665-18.3579,20-9.2356,10.0809-18.5607,20.0792c-5.1036,5.4422-11.2,10.8514-19.0789,11.133a14.0224,14.0224,0,0,1-13.2016-7.8818c-1.5676-3.1672-1.9005-6.6125-2.0169-10.0967-.15-4.488.0674-8.9794-.0854-13.4674-.1706-5.0108-.89-10.7578-5.0394-14.1424-4.71-3.8416-11.5946-3.4105-17.28-3.4916-8.905-.1271-17.8108.0383-26.7161-.0089-13.1051-.07-25.4095-6.3813-34.6484-15.4075A62.0136,62.0136,0,0,1,9.564,251.9992a49.4936,49.4936,0,0,1-.5109-9.6892,65.1187,65.1187,0,0,1,1.6293-10.4208c1.9634-9.2885,3.23-18.705,4.4266-28.1174,2.44-19.1955,5.5591-38.2619,8.6963-57.3537q2.3622-14.3765,4.6017-28.7716c1.4766-9.5249,3.1739-19.0145,4.58-28.55.7061-4.7894,1.3388-9.5905,1.83-14.407.4461-4.37.58-8.7692,1.0614-13.1326A61.781,61.781,0,0,1,41.28,42.2447,59.6284,59.6284,0,0,1,67.7016,14.5138,56.1632,56.1632,0,0,1,86.5471,8.6921C90.379,8.2205,98.07,8,98.07,8h14.5868l59.1466,1,58.7469-1Z" fill="url(#linear-gradient)"/>
          <path d="M235.9377,0c17.5908.2673,35.1815.2617,52.7723.257Q315.1961.25,341.6821.252q13.1931.0029,26.3862.0121,6.5964.005,13.193.0119c4.1336.0045,8.2953-.1308,12.425.0561,12.7939.579,24.9428,6.8288,34.121,15.5464,9.14,8.6817,15.9883,20.4661,16.9848,33.2047a39.7134,39.7134,0,0,1,.0934,4.64c-.5141,13.2141-2.6265,26.2927-4.6437,39.341-2.0465,13.2384-3.6692,26.532-5.4342,39.81-1.7639,13.2686-3.7656,26.5-5.8219,39.7258q-3.1012,19.9467-6.29,39.88c-1.04,6.574-1.9434,13.1854-3.1772,19.7259-.2969,1.5736-.59,3.1521-.7317,4.7487-.1391,1.5644-8.7,31.2882-15.6144,38.73A57.1184,57.1184,0,0,1,379.26,291.52a58.79,58.79,0,0,1-14.2207,2.6789c-5.9892.41-12.0119-.0394-18.0034-.1978-13.3843-.354-26.7741-.4561-40.1627-.42-13.3941.0361-26.7875.21-40.18.4085q-4.9713.0736-9.9426.15c-6.8848.1045-13.7046-1.6746-19.1049-6.076a31.6054,31.6054,0,0,1-6.4351-7.2983,25.1712,25.1712,0,0,1-4.2248-10.1245c-1.1608-8.2885,3.4559-15.9989,8.7154-21.99,3.287-3.7442,6.7853-7.3174,10.1664-10.9772q5.1445-5.5686,10.2663-11.1581,10.1843-11.0994,20.3965-22.1731,5.1539-5.559,10.352-11.0768c2.293-2.4308,4.39-5.157,7.0514-7.2053a8.9772,8.9772,0,0,1,8.7608-1.7064,14.0508,14.0508,0,0,1,7.9343,7.3545c3.0577,7.0889-1.0491,14.1-2.3938,21.0159a23.1629,23.1629,0,0,0,.24,10.8931,22.9206,22.9206,0,0,0,6.6077,10.1455,24.216,24.216,0,0,0,20.4032,6.4566,38.1594,38.1594,0,0,0,5.7729-1.3033c6.8679-2.0862,13.2642-5.8837,17.5944-11.7049a30.5465,30.5465,0,0,0,4.6958-9.465c1.341-4.47,1.8075-9.2259,2.5355-13.8231,3.37-21.2788,6.4135-42.6072,9.52-63.9255q1.29-8.8557,2.6031-17.7082c.4408-2.9623.8045-5.9478,1.468-8.8707.6491-2.8589,1.4983-5.6668,2.2088-8.51,3.4226-13.6969.5-29.476-9.8491-39.5575A28.3183,28.3183,0,0,0,356.2565,57.46a44.9092,44.9092,0,0,0-18.7229,1.3649c-6.7807,1.904-13.4082,5.303-18.2082,10.5493Q300.783,89.64,282.5034,110.145q-18.2541,20.3957-36.4838,40.8131c-5.3921,6.0158-10.8779,13.03-18.3393,16.5758-5.65,2.685-11.886,2.345-16.877-1.5606-3.0646-2.3981-5.1328-5.6058-7.18-8.8572q-3.6056-5.7252-7.1358-11.4974c-4.7481-7.75-9.4184-15.5465-14.0851-23.3454-4.6334-7.7433-9.2633-15.4889-13.9626-23.1926-4.4956-7.37-8.8851-14.8348-13.8879-21.8774a61.68,61.68,0,0,0-7.0666-8.7121,39.3546,39.3546,0,0,0-7.76-5.8205,47.2435,47.2435,0,0,0-18.6262-5.9327,46.5166,46.5166,0,0,0-19.5593,2.0247A26.2314,26.2314,0,0,0,88.3352,69.3733a52.9093,52.9093,0,0,0-7.4255,18.55c-.8248,3.8443-1.2258,7.7282-1.6693,11.6291-.51,4.4894-1.1047,8.969-1.75,13.441-2.601,18.0323-6.0268,35.9443-8.1339,54.0474q-1.5681,13.4728-2.0076,27.0446-.2323,6.8808-.199,13.7671.0152,3.338.0908,6.6751a19.21,19.21,0,0,0,.4531,4.4085c1.45,5.6734,5.6928,10.5752,10.0484,14.2952,4.02,3.4339,9.144,6.8019,14.5788,7.1273a23.0489,23.0489,0,0,0,15.7874-4.697c4.9664-3.9388,7.9379-9.801,9.5711-15.8217a73.336,73.336,0,0,0,2.1039-12.75c.3412-3.8554.2608-7.8017.9525-11.6161a19.9533,19.9533,0,0,1,9.2448-13.9293c5.3175-3.1749,12.1262-4.4856,17.7952-1.474,6.3906,3.395,9.6772,10.5569,13.3287,16.4291,9.4871,15.2569,19.22,30.37,28.1566,45.9606a110.87,110.87,0,0,1,5.4162,10.1916,22.8,22.8,0,0,1,2.1342,7.4387c.3741,5.08-2.62,9.3142-5.7509,13.0126-2.5392,2.9989-5.2958,5.8086-7.9865,8.67q-4.7166,5.0154-9.3872,10.0736-9.2152,9.9665-18.3579,20-9.2356,10.0809-18.5607,20.0792c-5.1036,5.4422-11.2,10.8514-19.0789,11.133a14.0224,14.0224,0,0,1-13.2016-7.8818c-1.5676-3.1672-1.9005-6.6125-2.0169-10.0967-.15-4.488.0674-8.9794-.0854-13.4674-.1706-5.0108-.89-10.7578-5.0394-14.1424-4.71-3.8416-11.5946-3.4105-17.28-3.4916-8.905-.1271-17.8108.0383-26.7161-.0089-13.1051-.07-25.4095-6.3813-34.6484-15.4075A62.0136,62.0136,0,0,1,.564,243.9992,49.4936,49.4936,0,0,1,.0531,234.31a65.1187,65.1187,0,0,1,1.6293-10.4208c1.9634-9.2885,3.23-18.705,4.4266-28.1174,2.44-19.1955,5.5591-38.2619,8.6963-57.3537q2.3622-14.3765,4.6017-28.7716c1.4766-9.5249,3.1739-19.0145,4.58-28.55.7061-4.7894,1.3388-9.5905,1.83-14.407.4461-4.37.58-8.7692,1.0614-13.1326A61.781,61.781,0,0,1,32.28,34.2447,59.6284,59.6284,0,0,1,58.7016,6.5138,56.1632,56.1632,0,0,1,77.5471.6921C81.379.2205,89.07,0,89.07,0h14.5868l59.1466,1,58.7469-1Z" fill="url(#linear-gradient-2)"/>
        </g>
      </g>
    </g>
  </g>
</svg>
